<?xml version="1.0" encoding="utf-8"?>
<!-- Generator: Adobe Illustrator 16.0.0, SVG Export Plug-In . SVG Version: 6.00 Build 0)  -->
<!DOCTYPE svg PUBLIC "-//W3C//DTD SVG 1.1//EN" "http://www.w3.org/Graphics/SVG/1.1/DTD/svg11.dtd">
<svg version="1.1" id="Calque_1" xmlns="http://www.w3.org/2000/svg" xmlns:xlink="http://www.w3.org/1999/xlink" x="0px" y="0px"
	 width="439.167px" height="331.667px" viewBox="0 0 439.167 331.667" enable-background="new 0 0 439.167 331.667"
	 xml:space="preserve">
<g>
	<path display="none" fill-rule="evenodd" clip-rule="evenodd" fill="#F47B20" d="M474.626,449.91c-172.064,0-344.092,0-516.086,0
		c0-172.064,0-344.093,0-516.086c172.064,0,344.094,0,516.086,0C474.626,105.888,474.626,277.916,474.626,449.91z M116.991,267.385
		c0.123,0.395,0.244,0.789,0.366,1.182c-1.504,1.436-3.001,2.881-4.514,4.307c-9.267,8.742-18.568,17.447-27.792,26.234
		c-4.376,4.168-4.684,9.293-0.998,13.293c3.775,4.094,9.414,4.23,13.73,0.174c16.576-15.58,33.132-31.182,49.652-46.82
		c5.219-4.939,5.349-9.959,0.221-14.959c-16.289-15.879-32.643-31.691-49.042-47.458c-4.472-4.299-9.272-4.295-13.239-0.345
		c-4.035,4.019-3.856,9.068,0.676,13.591c5.688,5.682,11.529,11.207,17.234,16.871c4.873,4.838,9.646,9.777,14.569,14.777
		c-10.83,0-21.399-0.066-31.968,0.02c-9.103,0.076-17.677-1.924-25.816-5.963c-25.315-12.563-38.237-40.125-32.041-66.843
		c6.855-29.561,31.857-47.84,62.043-46.622c9.152,0.37,12.737-3.237,12.263-12.508c-0.565-11.041,1.019-21.839,4.722-32.154
		c16.006-44.579,64.889-67.016,109.21-50.288c18.378,6.937,32.535,18.937,42.66,35.8c4.225,7.033,8.076,7.984,15.063,4.392
		c9.352-4.809,19.221-7.121,29.791-6.526c29.875,1.681,54.928,28.376,49.316,62.954c-1.826,11.255,1.164,15.278,12.438,15.241
		c0.912-0.003,1.822,0.002,2.732,0.015c22.154,0.304,43.107,16.769,47.994,38.314c7.559,33.329-15.471,62.222-46.07,63.946
		c-8.76,0.492-17.568,0.18-26.354,0.207c-7.799,0.021-15.598,0.004-24.26,0.004c11.531-11.105,22.359-21.432,33.061-31.887
		c4.346-4.244,4.471-9.267,0.697-13.233c-3.85-4.046-8.898-4.214-13.262-0.077c-16.621,15.757-33.191,31.564-49.695,47.445
		c-5.076,4.885-4.941,10.148,0.141,15.018c16.098,15.424,32.221,30.822,48.363,46.201c4.998,4.762,9.982,5.051,13.91,0.947
		c4.158-4.344,3.73-9.326-1.375-14.303c-5.535-5.4-11.281-10.592-16.711-16.096c-4.811-4.875-9.314-10.053-13.82-14.949
		c21.559-1.061,43.926,2.789,65.805-3.188c-0.139,0.447-0.277,0.895-0.418,1.344c1.855,0.68,3.711,1.357,5.564,2.037
		c0.174-0.424,0.348-0.848,0.521-1.271c-1.236-0.705-2.471-1.41-4.053-2.313c32.398-14.35,50.371-38.443,46.854-73.88
		c-3.621-36.455-26.813-56.327-61.881-63.389c0.057-15.502-2.775-30.182-11.256-43.614c-17.377-27.521-47.957-39.441-78.549-31.826
		c-8.756,2.18-13.295,1.584-19.611-5.764c-22.314-25.964-51.272-37.684-85.653-35.08c-26.416,2.001-48.544,13.132-66.572,32.314
		c-16.438,17.491-25.601,38.373-27.529,62.333c-0.258,3.201-0.711,5.352-4.749,5.484c-10.477,0.34-20.153,3.631-29.292,8.713
		C23.336,134.056,9.01,156.907,8.04,187.284c-0.762,23.845,8.668,44.097,26.454,59.974c15.355,13.707,33.464,20.744,54.325,20.172
		C98.204,267.172,107.601,267.385,116.991,267.385z M121.492,115.338c0,1.516-0.058,3.034,0.011,4.546
		c0.215,4.763,3.39,8.475,7.864,9.266c3.87,0.685,8.157-1.602,9.802-5.77c0.859-2.177,1.061-4.688,1.183-7.067
		c0.798-15.657,7.024-28.82,19.173-38.566c5.546-4.449,12.385-7.34,18.783-10.656c5.146-2.667,7.736-7.181,6.108-11.617
		c-2.024-5.517-6.706-7.861-12.282-6.15C143.855,58,122.39,86.025,121.492,115.338z M79.638,172.174
		c-0.002,11.045,6.121,17.365,16.818,17.358c10.313-0.006,16.713-6.543,16.743-17.099c0.03-10.733-6.469-17.389-16.966-17.374
		C85.853,155.073,79.64,161.48,79.638,172.174z M226.773,171.311c-4.261,0.766-7.56,1.298-10.832,1.963
		c-4.05,0.822-5.924,3.732-5.88,7.509c0.043,3.726,1.907,7.054,5.808,7.695c4.222,0.695,8.665,0.953,12.896,0.438
		c4.315-0.526,6.911-3.28,6.391-8.233c-0.313-3.001,0.012-6.063-0.074-9.095c-0.145-5.11-2.379-8.622-7.356-9.525
		c-3.871-0.703-8.125-0.523-11.991,0.292c-4.617,0.974-5.085,3.289-2.428,7.612C222.281,168.31,222.281,168.31,226.773,171.311z
		 M327.111,179.203c4.898-0.875,9.207-1.355,13.314-2.542c1.355-0.392,3.012-2.543,3.117-3.993c0.58-7.977-8.33-13.672-16.84-10.862
		c-5.83,1.924-8.496,6.293-8.953,12.281c-0.467,6.088,2.125,11.515,7.262,13.902c5.314,2.468,10.861,2.62,15.93-0.471
		c1.086-0.662,0.91-3.391,1.316-5.168c-1.504-0.284-3.164-1.122-4.48-0.748C333.964,182.686,330.531,182.998,327.111,179.203z
		 M266.083,188.307c0-6.315,0.592-12.433-0.264-18.342c-0.395-2.721-3.148-6.255-5.678-7.232c-3.563-1.376-8.039-1.448-11.891-0.765
		c-6.387,1.133-7.482,3.112-7.484,9.595c-0.002,3.336-0.002,6.671,0,10.007c0.002,7.265,1.205,8.155,8.986,6.319
		c0-4.896,0.121-9.882-0.049-14.856c-0.094-2.754,0.816-4.84,3.605-4.216c1.438,0.322,3.057,2.542,3.449,4.178
		c0.586,2.438,0.16,5.119,0.162,7.696C256.933,188.91,257.146,189.102,266.083,188.307z M118.362,162.803
		c-0.129,0.263-0.365,0.525-0.368,0.789c-0.057,5.142-0.131,10.284-0.109,15.426c0.022,5.408,2.999,9.513,8.283,10.207
		c3.638,0.479,7.468-0.044,11.156-0.534c4.504-0.599,6.3-3.436,5.972-7.993c-0.271-3.763-0.052-7.561-0.057-11.343
		c-0.008-7.007-1.76-8.249-9.213-6.165c0,4.863-0.018,9.836,0.007,14.81c0.011,2.22-0.03,4.907-3.048,4.154
		c-1.627-0.406-3.496-2.584-3.949-4.306c-0.67-2.548-0.178-5.402-0.179-8.125C126.854,162.269,126.011,161.581,118.362,162.803z
		 M284.91,180.088c-3.488,3.611-6.451,1.734-9.41,1.202c-1.215-0.218-3.432-0.071-3.664,0.517c-0.525,1.324-0.555,3.256,0.076,4.507
		c0.588,1.166,2.23,2.387,3.512,2.507c3.844,0.362,7.828,0.738,11.584,0.094c4.033-0.692,6.486-3.592,6.441-8.059
		c-0.043-4.303-2.541-6.497-6.352-7.695c-2.461-0.774-4.879-1.679-7.314-2.526c0.111-0.605,0.221-1.21,0.332-1.815
		c3.51,0.302,7.02,0.604,11.793,1.015c-0.293-1.982,0.09-4.568-1.021-5.975c-3.748-4.741-16.387-2.896-19.141,2.511
		c-2.793,5.482,0.553,10.612,7.873,12.17C281.22,178.882,282.771,179.455,284.91,180.088z M306.333,164.141
		c0.023-4.729,1.779-5.998,6.252-5.512c1.246,0.135,2.605-0.776,3.914-1.207c-0.578-1.69-1.012-4.765-1.758-4.842
		c-4.064-0.42-8.402-0.846-12.264,0.176c-3.662,0.97-5.33,4.573-5.289,8.629c0.068,6.665,0.016,13.331,0.018,19.996
		c0.002,7.309,1.15,8.194,9.133,6.532c0-5.398,0-10.919,0-16.382c9.748-0.593,10.229-1.049,7.943-7.392
		C311.824,164.141,309.271,164.141,306.333,164.141z M179.854,188.208c0-8.476,0-16.707,0-25.089c2.338,0,4.385,0.522,5.893-0.155
		c1.359-0.611,2.65-2.405,3.03-3.914c0.522-2.076-0.745-3.172-3.149-3.125c-6.808,0.134-13.619,0.092-20.429,0.025
		c-2.792-0.027-3.642,1.341-3.674,3.938c-0.034,2.686,1.23,3.435,3.639,3.264c1.601-0.114,3.216-0.022,5.278-0.022
		c0,6.281-0.007,11.999,0,17.717C170.453,188.859,170.858,189.206,179.854,188.208z M199.59,169.922
		c2.093-0.554,3.528-1.068,5.007-1.292c1.891-0.287,4.025,0.218,4.218-2.821c0.197-3.135-1.694-4.936-4.138-4.879
		c-3.498,0.081-7.188,0.788-10.366,2.195c-1.674,0.741-3.204,3.442-3.452,5.427c-0.523,4.178-0.16,8.467-0.16,12.711
		c0.002,7.542,0.688,8.102,8.892,6.854C199.59,182.185,199.59,176.179,199.59,169.922z M357.078,169.921
		c2.092-0.554,3.525-1.067,5.004-1.292c1.891-0.286,4.027,0.22,4.219-2.819c0.199-3.135-1.689-4.937-4.135-4.88
		c-3.498,0.082-7.188,0.788-10.365,2.195c-1.674,0.741-3.207,3.441-3.455,5.425c-0.523,4.178-0.16,8.467-0.16,12.711
		c0.002,7.543,0.684,8.098,8.893,6.857C357.078,182.19,357.078,176.182,357.078,169.921z M157.845,188.329
		c0-8.093,0.146-15.916-0.063-23.729c-0.104-3.855-3.341-3.024-5.824-3.181c-2.773-0.175-3.209,1.364-3.164,3.684
		c0.104,5.289,0.031,10.581,0.031,15.872C148.827,188.771,149.147,189.054,157.845,188.329z M152.982,149.572
		c-3.187-0.124-4.54,2.183-4.473,5.165c0.063,2.784,1.46,4.815,4.814,4.785c3.405-0.031,5.216-1.868,5.241-4.952
		C158.589,151.472,156.753,149.545,152.982,149.572z"/>
	<path fill-rule="evenodd" clip-rule="evenodd" fill="#F47B20" d="M435.16,190.018c-3.621-36.455-26.813-56.327-61.881-63.389
		c0.057-15.502-2.775-30.182-11.256-43.614c-17.377-27.521-47.957-39.441-78.549-31.826c-8.756,2.18-13.295,1.584-19.611-5.764
		c-22.314-25.964-51.272-37.684-85.653-35.08c-26.416,2.001-48.544,13.132-66.572,32.314
		c-16.438,17.491-25.601,38.373-27.529,62.333c-0.258,3.201-0.711,5.352-4.749,5.484c-10.477,0.34-20.153,3.631-29.292,8.713
		C23.336,134.056,9.01,156.907,8.04,187.284c-0.762,23.845,8.668,44.097,26.454,59.974c15.355,13.707,33.464,20.744,54.325,20.172
		c9.385-0.258,18.781-0.045,28.172-0.045c0.123,0.395,0.244,0.789,0.366,1.182c-1.504,1.436-3.001,2.881-4.514,4.307
		c-9.267,8.742-18.568,17.447-27.792,26.234c-4.376,4.168-4.684,9.293-0.998,13.293c3.775,4.094,9.414,4.23,13.73,0.174
		c16.576-15.58,33.132-31.182,49.652-46.82c5.219-4.939,5.349-9.959,0.221-14.959c-16.289-15.879-32.643-31.691-49.042-47.458
		c-4.472-4.299-9.272-4.295-13.239-0.345c-4.035,4.019-3.856,9.068,0.676,13.591c5.688,5.682,11.529,11.207,17.234,16.871
		c4.873,4.838,9.646,9.777,14.569,14.777c-10.83,0-21.399-0.066-31.968,0.02c-9.103,0.076-17.677-1.924-25.816-5.963
		c-25.315-12.563-38.237-40.125-32.041-66.843c6.855-29.561,31.857-47.84,62.043-46.622c9.152,0.37,12.737-3.237,12.263-12.508
		c-0.565-11.041,1.019-21.839,4.722-32.154c16.006-44.579,64.889-67.016,109.21-50.288c18.378,6.937,32.535,18.937,42.66,35.8
		c4.225,7.033,8.076,7.984,15.063,4.392c9.352-4.809,19.221-7.121,29.791-6.526c29.875,1.681,54.928,28.376,49.316,62.954
		c-1.826,11.255,1.164,15.278,12.438,15.241c0.912-0.003,1.822,0.002,2.732,0.015c22.154,0.304,43.107,16.769,47.994,38.314
		c7.559,33.329-15.471,62.222-46.07,63.946c-8.76,0.492-17.568,0.18-26.354,0.207c-7.799,0.021-15.598,0.004-24.26,0.004
		c11.531-11.105,22.359-21.432,33.061-31.887c4.346-4.244,4.471-9.267,0.697-13.233c-3.85-4.046-8.898-4.214-13.262-0.077
		c-16.621,15.757-33.191,31.564-49.695,47.445c-5.076,4.885-4.941,10.148,0.141,15.018c16.098,15.424,32.221,30.822,48.363,46.201
		c4.998,4.762,9.982,5.051,13.91,0.947c4.158-4.344,3.73-9.326-1.375-14.303c-5.535-5.4-11.281-10.592-16.711-16.096
		c-4.811-4.875-9.314-10.053-13.82-14.949c21.559-1.061,43.926,2.789,65.805-3.188c-0.018,0.057-0.035,0.115-0.053,0.174
		c0.777-0.656,1.814-1.072,3.123-1.072c0.02,0,0.037,0.002,0.057,0.002C421.255,248.777,438.623,224.896,435.16,190.018z"/>
	<path fill-rule="evenodd" clip-rule="evenodd" fill="#F47B20" d="M121.492,115.338C122.39,86.025,143.855,58,172.134,49.324
		c5.576-1.711,10.258,0.633,12.282,6.15c1.628,4.436-0.962,8.95-6.108,11.617c-6.398,3.316-13.237,6.208-18.783,10.656
		c-12.148,9.746-18.375,22.909-19.173,38.566c-0.122,2.379-0.323,4.891-1.183,7.067c-1.645,4.168-5.932,6.455-9.802,5.77
		c-4.475-0.791-7.649-4.503-7.864-9.266C121.435,118.372,121.492,116.854,121.492,115.338z"/>
	<path display="none" fill-rule="evenodd" clip-rule="evenodd" fill="#F47B20" d="M79.638,172.174
		c0.002-10.694,6.215-17.101,16.596-17.115c10.497-0.015,16.996,6.641,16.966,17.374c-0.03,10.556-6.431,17.093-16.743,17.099
		C85.759,189.539,79.636,183.219,79.638,172.174z M103.296,170.897c-0.033-0.177-0.215-1.657-0.592-3.087
		c-0.963-3.646-3.362-5.887-7.151-5.46c-3.765,0.424-5.573,3.25-5.996,6.864c-0.191,1.635-0.132,3.31-0.062,4.961
		c0.207,4.897,2.822,8.063,6.675,8.174c3.655,0.105,6.673-3.216,7.116-7.872C103.356,173.731,103.296,172.973,103.296,170.897z"/>
	<path display="none" fill-rule="evenodd" clip-rule="evenodd" fill="#F47B20" d="M226.773,171.311
		c-4.492-3.001-4.492-3.001-13.467-1.344c-2.657-4.324-2.189-6.638,2.428-7.612c3.866-0.815,8.12-0.995,11.991-0.292
		c4.977,0.903,7.211,4.416,7.356,9.525c0.086,3.031-0.238,6.094,0.074,9.095c0.52,4.953-2.076,7.707-6.391,8.233
		c-4.23,0.516-8.674,0.257-12.896-0.438c-3.9-0.642-5.765-3.97-5.808-7.695c-0.044-3.777,1.83-6.687,5.88-7.509
		C219.214,172.609,222.513,172.077,226.773,171.311z M219.214,179.001c-0.025,0.731-0.053,1.461-0.078,2.192
		c1.809,0.313,3.701,1.073,5.392,0.756c0.87-0.163,1.38-2.243,2.054-3.457c-0.322-0.348-0.645-0.697-0.967-1.045
		C223.481,177.965,221.348,178.483,219.214,179.001z"/>
	<path display="none" fill-rule="evenodd" clip-rule="evenodd" fill="#F47B20" d="M327.111,179.203
		c3.42,3.795,6.854,3.483,10.666,2.4c1.316-0.374,2.977,0.464,4.48,0.748c-0.406,1.777-0.23,4.506-1.316,5.168
		c-5.068,3.09-10.615,2.939-15.93,0.471c-5.137-2.387-7.729-7.813-7.262-13.902c0.457-5.988,3.123-10.357,8.953-12.281
		c8.51-2.81,17.42,2.885,16.84,10.862c-0.105,1.45-1.762,3.601-3.117,3.993C336.318,177.847,332.009,178.328,327.111,179.203z
		 M326.384,173.112c2.824-0.512,5.451-0.987,8.451-1.531C331.089,167.325,328.775,167.858,326.384,173.112z"/>
	<path display="none" fill-rule="evenodd" clip-rule="evenodd" fill="#F47B20" d="M266.083,188.307
		c-8.938,0.794-9.15,0.603-9.162-7.617c-0.002-2.577,0.424-5.258-0.162-7.696c-0.393-1.637-2.012-3.856-3.449-4.178
		c-2.789-0.625-3.699,1.462-3.605,4.216c0.17,4.975,0.049,9.96,0.049,14.856c-7.781,1.836-8.984,0.946-8.986-6.319
		c-0.002-3.335-0.002-6.671,0-10.007c0.002-6.482,1.098-8.462,7.484-9.595c3.852-0.684,8.328-0.611,11.891,0.765
		c2.529,0.977,5.283,4.512,5.678,7.232C266.675,175.874,266.083,181.992,266.083,188.307z"/>
	<path display="none" fill-rule="evenodd" clip-rule="evenodd" fill="#F47B20" d="M118.367,162.806
		c7.644-1.225,8.487-0.537,8.49,6.917c0.001,2.723-0.491,5.577,0.179,8.125c0.453,1.722,2.322,3.9,3.949,4.306
		c3.018,0.752,3.059-1.935,3.048-4.154c-0.024-4.974-0.007-9.947-0.007-14.81c7.453-2.084,9.205-0.843,9.213,6.165
		c0.005,3.782-0.214,7.58,0.057,11.343c0.328,4.557-1.468,7.394-5.972,7.993c-3.688,0.49-7.519,1.013-11.156,0.534
		c-5.284-0.694-8.261-4.799-8.283-10.207c-0.021-5.142,0.053-10.284,0.109-15.426C117.997,163.328,118.233,163.066,118.367,162.806z
		"/>
	<path display="none" fill-rule="evenodd" clip-rule="evenodd" fill="#F47B20" d="M284.91,180.088
		c-2.139-0.633-3.689-1.207-5.291-1.547c-7.32-1.558-10.666-6.688-7.873-12.17c2.754-5.407,15.393-7.252,19.141-2.511
		c1.111,1.406,0.729,3.993,1.021,5.975c-4.773-0.411-8.283-0.713-11.793-1.015c-0.111,0.605-0.221,1.21-0.332,1.815
		c2.436,0.847,4.854,1.752,7.314,2.526c3.811,1.199,6.309,3.392,6.352,7.695c0.045,4.467-2.408,7.367-6.441,8.059
		c-3.756,0.644-7.74,0.269-11.584-0.094c-1.281-0.121-2.924-1.341-3.512-2.507c-0.631-1.25-0.602-3.183-0.076-4.507
		c0.232-0.588,2.449-0.735,3.664-0.517C278.458,181.822,281.421,183.7,284.91,180.088z"/>
	<path display="none" fill-rule="evenodd" clip-rule="evenodd" fill="#F47B20" d="M306.333,164.141c2.938,0,5.49,0,7.949,0
		c2.285,6.343,1.805,6.798-7.943,7.392c0,5.463,0,10.984,0,16.382c-7.982,1.663-9.131,0.777-9.133-6.532
		c-0.002-6.666,0.051-13.331-0.018-19.996c-0.041-4.057,1.627-7.659,5.289-8.629c3.861-1.022,8.199-0.596,12.264-0.176
		c0.746,0.077,1.18,3.151,1.758,4.842c-1.309,0.431-2.668,1.341-3.914,1.207C308.113,158.144,306.357,159.413,306.333,164.141z"/>
	<path display="none" fill-rule="evenodd" clip-rule="evenodd" fill="#F47B20" d="M179.854,188.208
		c-8.996,0.998-9.401,0.65-9.412-7.36c-0.007-5.718,0-11.437,0-17.717c-2.063,0-3.678-0.092-5.278,0.022
		c-2.408,0.171-3.673-0.578-3.639-3.264c0.032-2.597,0.882-3.966,3.674-3.938c6.81,0.067,13.621,0.108,20.429-0.025
		c2.404-0.047,3.672,1.049,3.149,3.125c-0.38,1.509-1.671,3.303-3.03,3.914c-1.508,0.677-3.555,0.155-5.893,0.155
		C179.854,171.502,179.854,179.732,179.854,188.208z"/>
	<path display="none" fill-rule="evenodd" clip-rule="evenodd" fill="#F47B20" d="M199.59,169.922c0,6.257,0,12.263,0,18.194
		c-8.203,1.248-8.89,0.688-8.892-6.854c0-4.244-0.363-8.533,0.16-12.711c0.248-1.985,1.778-4.686,3.452-5.427
		c3.179-1.408,6.868-2.115,10.366-2.195c2.443-0.057,4.335,1.744,4.138,4.879c-0.192,3.04-2.327,2.535-4.218,2.821
		C203.118,168.854,201.683,169.368,199.59,169.922z"/>
	<path display="none" fill-rule="evenodd" clip-rule="evenodd" fill="#F47B20" d="M357.078,169.921c0,6.261,0,12.269,0,18.197
		c-8.209,1.241-8.891,0.686-8.893-6.857c0-4.244-0.363-8.533,0.16-12.711c0.248-1.984,1.781-4.685,3.455-5.425
		c3.178-1.407,6.867-2.114,10.365-2.195c2.445-0.057,4.334,1.746,4.135,4.88c-0.191,3.04-2.328,2.533-4.219,2.819
		C360.603,168.854,359.169,169.368,357.078,169.921z"/>
	<path display="none" fill-rule="evenodd" clip-rule="evenodd" fill="#F47B20" d="M157.845,188.329
		c-8.697,0.725-9.018,0.442-9.02-7.354c0-5.291,0.072-10.583-0.031-15.872c-0.045-2.32,0.391-3.858,3.164-3.684
		c2.483,0.157,5.721-0.674,5.824,3.181C157.991,172.414,157.845,180.236,157.845,188.329z"/>
	<path display="none" fill-rule="evenodd" clip-rule="evenodd" fill="#F47B20" d="M152.982,149.572
		c3.771-0.027,5.606,1.9,5.583,4.999c-0.025,3.084-1.836,4.921-5.241,4.952c-3.354,0.03-4.752-2.001-4.814-4.785
		C148.442,151.754,149.796,149.448,152.982,149.572z"/>
	<path display="none" fill-rule="evenodd" clip-rule="evenodd" fill="#F47B20" d="M103.296,170.897c0,2.075,0.061,2.833-0.01,3.58
		c-0.443,4.656-3.461,7.978-7.116,7.872c-3.853-0.111-6.468-3.276-6.675-8.174c-0.07-1.651-0.13-3.326,0.062-4.961
		c0.423-3.614,2.231-6.44,5.996-6.864c3.789-0.427,6.188,1.813,7.151,5.46C103.081,169.24,103.263,170.721,103.296,170.897z"/>
	<path display="none" fill-rule="evenodd" clip-rule="evenodd" fill="#F47B20" d="M219.214,179.001
		c2.134-0.518,4.268-1.036,6.4-1.554c0.322,0.348,0.645,0.697,0.967,1.045c-0.674,1.214-1.184,3.294-2.054,3.457
		c-1.69,0.316-3.583-0.443-5.392-0.756C219.161,180.462,219.188,179.732,219.214,179.001z"/>
	<path display="none" fill-rule="evenodd" clip-rule="evenodd" fill="#F47B20" d="M326.384,173.112
		c2.391-5.254,4.705-5.787,8.451-1.531C331.835,172.125,329.208,172.601,326.384,173.112z"/>
</g>
</svg>
